Coordinates
version=1
nRows=21
nColumns=12
inDegrees=yes

Units are S.I. units (second, meters, Newtons, ...)
Angles are in degrees

endheader
time	SC_y	SC_z	SC_x	AC_y	AC_z	AC_x	GH_y	GH_z	GH_yy	EL_x	PS_y
       0.0              -57.69          13.73          60.25          66.33          6.466          4.453         -40.32           5.07         -179.1          108.1          12.22
    0.0105              -57.68          13.73          60.26          66.33          6.465          4.454         -40.32          5.082         -179.0          108.1          12.23
   0.02099              -57.68          13.73          60.26          66.33          6.464          4.454         -40.32          5.095         -179.0          108.1          12.23
   0.03149              -57.68          13.73          60.26          66.33          6.464          4.455         -40.32          5.109         -179.0          108.1          12.24
   0.04198              -57.68          13.73          60.26          66.32          6.463          4.456         -40.32          5.123         -179.0          108.1          12.25
   0.05248              -57.67          13.73          60.26          66.32          6.462          4.457         -40.32          5.139         -179.0          108.1          12.25
   0.06297              -57.67          13.73          60.27          66.32          6.461          4.458         -40.32          5.155         -179.0          108.1          12.26
   0.07347              -57.67          13.73          60.27          66.32           6.46          4.459         -40.32          5.173         -179.0          108.1          12.27
   0.08396              -57.66          13.73          60.27          66.31          6.458           4.46         -40.31          5.192         -178.9          108.1          12.28
   0.09446              -57.66          13.74          60.27          66.31          6.457          4.461         -40.31          5.212         -178.9          108.1          12.29
     0.105              -57.65          13.74          60.28          66.31          6.456          4.463         -40.31          5.234         -178.9          108.1           12.3
    0.1154              -57.65          13.74          60.28           66.3          6.454          4.464         -40.31          5.258         -178.9          108.1          12.31
    0.1259              -57.64          13.74          60.28           66.3          6.453          4.466         -40.31          5.283         -178.8          108.1          12.33
    0.1364              -57.64          13.74          60.28          66.29          6.451          4.467         -40.31           5.31         -178.8          108.1          12.34
    0.1469              -57.63          13.74          60.29          66.29          6.449          4.469         -40.31           5.34         -178.8          108.1          12.35
    0.1574              -57.63          13.74          60.29          66.28          6.447          4.471         -40.31          5.372         -178.7          108.1          12.37
    0.1679              -57.62          13.74           60.3          66.27          6.445          4.473         -40.31          5.407         -178.7          108.1          12.39
    0.1784              -57.61          13.74           60.3          66.27          6.443          4.475         -40.31          5.445         -178.7          108.1          12.41
    0.1889               -57.6          13.75          60.31          66.26           6.44          4.478          -40.3          5.487         -178.6          108.1          12.43
    0.1994              -57.59          13.75          60.31          66.25          6.437           4.48          -40.3          5.532         -178.6          108.1          12.45
    0.2099              -57.58          13.75          60.32          66.24          6.434          4.483          -40.3          5.582         -178.5          108.1          12.47
